<?xml version="1.0" encoding="UTF-8" standalone="no"?>
<svg xmlns:xlink="http://www.w3.org/1999/xlink" xmlns="http://www.w3.org/2000/svg" xmlns:svg="http://www.w3.org/2000/svg" width="389.12088mm" height="67.412422mm" viewBox="0 0 389.12088 67.412422" version="1.1" id="svg1">
  <defs id="defs1">
    <linearGradient xlink:href="#linearGradient31" id="linearGradient33" x1="102.969" y1="316.80856" x2="172.04852" y2="269.18356" gradientUnits="userSpaceOnUse"></linearGradient>
    <linearGradient id="linearGradient31">
      <stop style="stop-color:#ff7903;stop-opacity:1;" offset="0" id="stop32"></stop>
      <stop style="stop-color:#ffb903;stop-opacity:1;" offset="1" id="stop33"></stop>
    </linearGradient>
  </defs>
  <g id="layer1" transform="translate(89.42917,-114.82917)">
    <path d="m 46.86548,165.04298 h -16.7132 c -0.7112,0 -1.0668,-0.3556 -1.0668,-1.0668 v -30.53082 c 0,-0.7112 0.3556,-1.0668 1.0668,-1.0668 h 4.318 c 0.7112,0 1.0668,0.3556 1.0668,1.0668 v 25.40005 c 0,0.3725 0.2032,0.5588 0.6096,0.5588 h 10.7188 c 0.6773,0 1.016,0.3725 1.016,1.1176 v 3.45437 c 0,0.7112 -0.3387,1.0668 -1.016,1.0668 z" style="font-weight:bold;font-size:50.8px;font-family:Rajdhani;-inkscape-font-specification:'Rajdhani Bold';text-align:center;text-anchor:middle;fill:#1b1d21;fill-opacity:1;stroke-width:0.265" id="path53-9"></path>
    <path d="m 60.78468,159.45501 h 3.6068 c 1.0837,0 1.8457,-0.2201 2.286,-0.6604 0.4741,-0.4741 0.7112,-1.2531 0.7112,-2.33677 V 140.9638 c 0,-1.08367 -0.2371,-1.84567 -0.7112,-2.28597 -0.4403,-0.4741 -1.2023,-0.7112 -2.286,-0.7112 h -3.6068 c -1.0838,0 -1.8458,0.2371 -2.286,0.7112 -0.4403,0.4403 -0.6604,1.2023 -0.6604,2.28597 v 15.49404 c 0,1.08367 0.2201,1.86267 0.6604,2.33677 0.4402,0.4403 1.2022,0.6604 2.286,0.6604 z m 4.6736,5.58797 h -5.6896 c -2.6755,0 -4.7414,-0.7112 -6.1976,-2.1336 -1.4563,-1.42237 -2.1844,-3.47127 -2.1844,-6.14677 v -16.10358 c 0,-2.6755 0.7281,-4.7244 2.1844,-6.14687 1.4562,-1.4224 3.5221,-2.1336 6.1976,-2.1336 h 5.6896 c 2.6754,0 4.7413,0.7112 6.1976,2.1336 1.4562,1.42247 2.1844,3.47137 2.1844,6.14687 v 16.10358 c 0,2.6755 -0.7282,4.7244 -2.1844,6.14677 -1.4563,1.4224 -3.5222,2.1336 -6.1976,2.1336 z" style="font-weight:bold;font-size:50.8px;font-family:Rajdhani;-inkscape-font-specification:'Rajdhani Bold';text-align:center;text-anchor:middle;fill:#1b1d21;fill-opacity:1;stroke-width:0.265" id="path54-0"></path>
    <path d="m 93.34748,165.04298 h -5.5372 c -2.6755,0 -4.7414,-0.7112 -6.1976,-2.1336 -1.4563,-1.42237 -2.1844,-3.47127 -2.1844,-6.14677 v -16.10358 c 0,-2.6755 0.7281,-4.7244 2.1844,-6.14687 1.4562,-1.4224 3.5221,-2.1336 6.1976,-2.1336 h 5.5372 c 2.6416,0 4.6905,0.7281 6.1468,2.1844 1.4901,1.42247 2.2352,3.45447 2.2352,6.09607 v 2.38757 c 0,0.7451 -0.3726,1.1176 -1.1176,1.1176 h -4.2672 c -0.7112,0 -1.0668,-0.3725 -1.0668,-1.1176 v -2.0828 c 0,-1.08367 -0.2371,-1.84567 -0.7112,-2.28597 -0.4403,-0.4741 -1.2023,-0.7112 -2.286,-0.7112 h -3.4544 c -1.0499,0 -1.8119,0.2371 -2.286,0.7112 -0.4403,0.4403 -0.6604,1.2023 -0.6604,2.28597 v 15.49404 c 0,1.08367 0.2201,1.86267 0.6604,2.33677 0.4741,0.4403 1.2361,0.6604 2.286,0.6604 h 3.4544 c 1.0837,0 1.8457,-0.2201 2.286,-0.6604 0.4741,-0.4741 0.7112,-1.2531 0.7112,-2.33677 v -2.0828 c 0,-0.7451 0.3556,-1.1176 1.0668,-1.1176 h 4.2672 c 0.745,0 1.1176,0.3725 1.1176,1.1176 v 2.38757 c 0,2.6416 -0.7451,4.6905 -2.2352,6.14677 -1.4563,1.4224 -3.5052,2.1336 -6.1468,2.1336 z" style="font-weight:bold;font-size:50.8px;font-family:Rajdhani;-inkscape-font-specification:'Rajdhani Bold';text-align:center;text-anchor:middle;fill:#1b1d21;fill-opacity:1;stroke-width:0.265" id="path55-3"></path>
    <path d="m 112.65148,165.04298 h -4.318 c -0.7112,0 -1.0668,-0.3556 -1.0668,-1.0668 v -30.53082 c 0,-0.7112 0.3556,-1.0668 1.0668,-1.0668 h 4.318 c 0.7112,0 1.0668,0.3556 1.0668,1.0668 v 14.47801 h 0.1016 c 0.2709,-0.8128 0.7958,-1.86267 1.5748,-3.14957 l 7.7216,-11.32844 c 0.4402,-0.7112 1.1006,-1.0668 1.9812,-1.0668 h 4.9784 c 0.3725,0 0.5927,0.1185 0.6604,0.3556 0.1016,0.2032 0.017,0.4741 -0.254,0.8128 l -9.652,13.36041 10.7696,16.86561 c 0.2371,0.4064 0.2709,0.7281 0.1016,0.9652 -0.1355,0.2032 -0.4403,0.3048 -0.9144,0.3048 h -3.7084 c -1.1853,0 -1.9812,-0.3556 -2.3876,-1.0668 l -7.7724,-12.44594 -3.2004,3.7592 v 8.68674 c 0,0.7112 -0.3556,1.0668 -1.0668,1.0668 z" style="font-weight:bold;font-size:50.8px;font-family:Rajdhani;-inkscape-font-specification:'Rajdhani Bold';text-align:center;text-anchor:middle;fill:#1b1d21;fill-opacity:1;stroke-width:0.265" id="path56-8"></path>
    <path d="m 144.29998,165.04298 h -2.286 c -0.4742,0 -0.7112,-0.2371 -0.7112,-0.7112 v -28.24475 c 0,-0.3048 -0.1694,-0.4572 -0.508,-0.4572 h -6.9088 c -0.508,0 -0.762,-0.23717 -0.762,-0.71127 v -1.8288 c 0,-0.4741 0.254,-0.7112 0.762,-0.7112 h 18.542 c 0.508,0 0.762,0.2371 0.762,0.7112 v 1.8288 c 0,0.4741 -0.254,0.71127 -0.762,0.71127 h -6.9088 c -0.3387,0 -0.508,0.1524 -0.508,0.4572 v 28.24475 c 0,0.4741 -0.2371,0.7112 -0.7112,0.7112 z" style="font-weight:500;font-size:50.8px;font-family:Rajdhani;-inkscape-font-specification:'Rajdhani Medium';text-align:center;text-anchor:middle;fill:#1b1d21;fill-opacity:1;stroke-width:0.265" id="path57-2"></path>
    <path d="m 161.01318,165.04298 h -2.286 c -0.4742,0 -0.7112,-0.2371 -0.7112,-0.7112 v -31.24202 c 0,-0.4741 0.237,-0.7112 0.7112,-0.7112 h 11.684 c 2.3368,0 4.1825,0.6773 5.5372,2.032 1.3546,1.32087 2.032,3.14967 2.032,5.48647 v 4.62277 c 0,1.89647 -0.4572,3.47127 -1.3716,4.72437 -0.9144,1.2192 -2.1844,2.032 -3.81,2.43847 v 0.2032 l 5.8928,12.34434 c 0.3048,0.5418 0.1354,0.8128 -0.508,0.8128 h -2.286 c -0.5758,0 -0.9991,-0.2371 -1.27,-0.7112 l -5.6896,-12.29354 h -6.7056 c -0.3387,0 -0.508,0.1524 -0.508,0.4572 v 11.83634 c 0,0.4741 -0.2371,0.7112 -0.7112,0.7112 z m 1.2192,-16.10361 h 7.6708 c 2.9125,0 4.3688,-1.4563 4.3688,-4.36877 v -4.52117 c 0,-2.9464 -1.4563,-4.4196 -4.3688,-4.4196 h -7.6708 c -0.3387,0 -0.508,0.1524 -0.508,0.4572 v 12.39514 c 0,0.3048 0.1693,0.4572 0.508,0.4572 z" style="font-weight:500;font-size:50.8px;font-family:Rajdhani;-inkscape-font-specification:'Rajdhani Medium';text-align:center;text-anchor:middle;fill:#1b1d21;fill-opacity:1;stroke-width:0.265" id="path58-9"></path>
    <path d="m 185.70198,165.04298 h -2.54 c -0.4403,0 -0.5927,-0.2371 -0.4572,-0.7112 l 9.4996,-31.24202 c 0.1355,-0.4741 0.4572,-0.7112 0.9652,-0.7112 h 3.6576 c 0.508,0 0.8297,0.2371 0.9652,0.7112 l 9.4996,31.24202 c 0.1355,0.4741 -0.017,0.7112 -0.4572,0.7112 h -2.5908 c -0.3725,0 -0.6096,-0.2371 -0.7112,-0.7112 l -2.3876,-7.41677 h -12.2936 l -2.3876,7.41677 c -0.1355,0.4741 -0.3895,0.7112 -0.762,0.7112 z m 9.1948,-28.85435 -5.2324,17.57681 h 10.668 l -5.2324,-17.57681 z" style="font-weight:500;font-size:50.8px;font-family:Rajdhani;-inkscape-font-specification:'Rajdhani Medium';text-align:center;text-anchor:middle;fill:#1b1d21;fill-opacity:1;stroke-width:0.265" id="path59-3"></path>
    <path d="m 216.69008,133.08976 v 31.24202 c 0,0.4741 -0.2371,0.7112 -0.7112,0.7112 h -2.286 c -0.4742,0 -0.7112,-0.2371 -0.7112,-0.7112 v -31.24202 c 0,-0.4741 0.237,-0.7112 0.7112,-0.7112 h 2.286 c 0.4741,0 0.7112,0.2371 0.7112,0.7112 z" style="font-weight:500;font-size:50.8px;font-family:Rajdhani;-inkscape-font-specification:'Rajdhani Medium';text-align:center;text-anchor:middle;fill:#1b1d21;fill-opacity:1;stroke-width:0.265" id="path60-4"></path>
    <path d="m 227.91678,165.04298 h -2.2352 c -0.4741,0 -0.7112,-0.2371 -0.7112,-0.7112 v -31.24202 c 0,-0.4741 0.2371,-0.7112 0.7112,-0.7112 h 2.0828 c 0.4064,0 0.6773,0.1355 0.8128,0.4064 l 14.0208,24.63805 h 0.2032 v -24.33325 c 0,-0.4741 0.2371,-0.7112 0.7112,-0.7112 h 2.2352 c 0.4741,0 0.7112,0.2371 0.7112,0.7112 v 31.24202 c 0,0.4741 -0.2371,0.7112 -0.7112,0.7112 h -1.8796 c -0.3725,0 -0.7281,-0.2202 -1.0668,-0.6604 l -13.97,-24.38395 h -0.2032 v 24.33315 c 0,0.4741 -0.2371,0.7112 -0.7112,0.7112 z" style="font-weight:500;font-size:50.8px;font-family:Rajdhani;-inkscape-font-specification:'Rajdhani Medium';text-align:center;text-anchor:middle;fill:#1b1d21;fill-opacity:1;stroke-width:0.265" id="path61-8"></path>
    <path d="m 271.14758,165.04298 h -15.9512 c -0.4742,0 -0.7112,-0.2371 -0.7112,-0.7112 v -31.24202 c 0,-0.4741 0.237,-0.7112 0.7112,-0.7112 h 15.9512 c 0.4741,0 0.7112,0.2371 0.7112,0.7112 v 1.8288 c 0,0.4741 -0.2371,0.71127 -0.7112,0.71127 h -12.446 c -0.3387,0 -0.508,0.1524 -0.508,0.4572 v 10.26154 c 0,0.3048 0.1693,0.4572 0.508,0.4572 h 10.8712 c 0.4741,0 0.7112,0.2371 0.7112,0.7112 v 1.8288 c 0,0.4741 -0.2371,0.7112 -0.7112,0.7112 h -10.8712 c -0.3387,0 -0.508,0.1524 -0.508,0.4572 v 10.82044 c 0,0.3048 0.1693,0.4572 0.508,0.4572 h 12.446 c 0.4741,0 0.7112,0.23697 0.7112,0.71117 v 1.8288 c 0,0.4741 -0.2371,0.7112 -0.7112,0.7112 z" style="font-weight:500;font-size:50.8px;font-family:Rajdhani;-inkscape-font-specification:'Rajdhani Medium';text-align:center;text-anchor:middle;fill:#1b1d21;fill-opacity:1;stroke-width:0.265" id="path62-5"></path>
    <path d="m 281.86638,165.04298 h -2.286 c -0.4742,0 -0.7112,-0.2371 -0.7112,-0.7112 v -31.24202 c 0,-0.4741 0.237,-0.7112 0.7112,-0.7112 h 11.684 c 2.3368,0 4.1825,0.6773 5.5372,2.032 1.3546,1.32087 2.032,3.14967 2.032,5.48647 v 4.62277 c 0,1.89647 -0.4572,3.47127 -1.3716,4.72437 -0.9144,1.2192 -2.1844,2.032 -3.81,2.43847 v 0.2032 l 5.8928,12.34434 c 0.3048,0.5418 0.1354,0.8128 -0.508,0.8128 h -2.286 c -0.5758,0 -0.9991,-0.2371 -1.27,-0.7112 l -5.6896,-12.29354 h -6.7056 c -0.3387,0 -0.508,0.1524 -0.508,0.4572 v 11.83634 c 0,0.4741 -0.2371,0.7112 -0.7112,0.7112 z m 1.2192,-16.10361 h 7.6708 c 2.9125,0 4.3688,-1.4563 4.3688,-4.36877 v -4.52117 c 0,-2.9464 -1.4563,-4.4196 -4.3688,-4.4196 h -7.6708 c -0.3387,0 -0.508,0.1524 -0.508,0.4572 v 12.39514 c 0,0.3048 0.1693,0.4572 0.508,0.4572 z" style="font-weight:500;font-size:50.8px;font-family:Rajdhani;-inkscape-font-specification:'Rajdhani Medium';text-align:center;text-anchor:middle;fill:#1b1d21;fill-opacity:1;stroke-width:0.265" id="path63-0"></path>
    <path style="font-weight:bold;font-size:50.8px;font-family:Rajdhani;-inkscape-font-specification:'Rajdhani Bold';fill:#1b1d21;fill-opacity:1;stroke-width:2.142" d="m 8.78982,159.64047 h 5.6896 q 1.6764,0 2.3876,-0.6604 0.762,-0.7112 0.762,-2.286 v -2.9464 q 0,-1.5748 -0.762,-2.2352 -0.762,-0.6604 -2.4892,-0.6604 h -5.588 q -0.5588,0 -0.5588,0.5588 v 7.6708 q 0,0.5588 0.5588,0.5588 z m 0,-14.0208 h 5.1816 q 1.6256,0 2.3876,-0.6604 0.762,-0.7112 0.762,-2.286 v -1.9812 q 0,-1.5748 -0.762,-2.2352 -0.7112,-0.7112 -2.3368,-0.7112 h -5.2324 q -0.5588,0 -0.5588,0.5588 v 6.7564 q 0,0.5588 0.5588,0.5588 z m -7.0104,18.3388 v -30.5308 q 0,-1.0668 1.0668,-1.0668 h 12.192 q 4.0132,0 6.1976,2.1336 2.1844,2.1336 2.1844,6.096 v 2.0828 q 0,4.318 -4.0132,5.588 2.032,0.3048 3.2512,1.6764 1.2192,1.3208 1.2192,3.81 v 3.048 q 0,3.9624 -2.1844,6.096 -2.1844,2.1336 -6.1468,2.1336 h -12.7 q -1.0668,0 -1.0668,-1.0668 z" id="text47-4" aria-label="B"></path>
    <g id="path12-7" transform="translate(-190.01692,-144.72528)">
      <path id="path30" style="color:#000000;fill:url(#linearGradient33);-inkscape-stroke:none" d="m 152.13861,259.55445 -35.48827,6.10971 -16.06259,28.17967 7.59024,-1.02164 0.0956,2.19366 c -0.45423,0.24681 -0.81856,0.64197 -0.81856,1.17926 0,0.49433 0.31156,0.87452 0.709,1.1312 l -0.62321,7.72252 h 3.1781 l -0.79324,-7.70134 c 0.41979,-0.25371 0.75035,-0.6413 0.75035,-1.15238 0,-0.30406 -0.0672,-0.60873 -0.24237,-0.87075 -0.10287,-0.15384 -0.3062,-0.21915 -0.47645,-0.31833 l 0.2868,-2.3244 2.67787,-0.37104 2.77554,3.97082 0.28474,-0.0956 c 0.7441,-0.25141 1.56056,-0.43292 2.36161,-0.63097 -1.39606,6.47774 -0.34741,13.06997 3.08405,18.78128 3.5803,5.95876 9.27336,10.17192 16.01763,11.85354 2.1069,0.5255 4.21839,0.77721 6.29884,0.77721 11.67476,-6.8e-4 22.41321,-7.91892 25.36124,-19.74246 1.68031,-6.74015 0.81759,-13.83588 -2.76779,-19.80241 -3.58561,-5.96793 -9.59024,-10.25159 -16.27911,-12.12122 -0.5473,-0.15296 -0.86611,-0.25557 -1.27537,-0.38293 0.58526,-0.83709 1.10699,-1.52958 1.11104,-1.53479 l 0.17777,-0.23047 -2.82773,-4.16616 z m -4.3925,3.06648 -12.87518,24.38301 -24.02541,3.11144 c 0.39133,-0.41693 0.87781,-0.79843 1.59577,-1.17616 1.09382,-0.57548 2.56297,-1.18433 4.35167,-2.13269 2.7686,-1.4672 4.75082,-2.18399 6.40426,-3.40806 1.63336,-1.2092 2.8835,-2.93237 4.13309,-6.18567 0.4399,-0.22587 0.77514,-0.63881 0.77514,-1.17357 0,-0.40056 -0.1651,-0.77177 -0.41393,-1.06867 -0.24884,-0.2969 -0.6019,-0.53691 -1.03146,-0.53691 -0.42068,0 -0.79355,0.20357 -1.0976,0.47852 -0.30407,0.27495 -0.55656,0.64154 -0.55656,1.09192 0,0.45147 0.24902,0.77383 0.54467,1.02526 -1.2951,2.72738 -2.34872,4.07529 -3.69693,5.03122 -1.4005,0.99299 -3.1928,1.65067 -5.92987,3.10162 -1.98961,1.05459 -3.6682,1.83616 -4.96456,2.64067 -1.19186,0.73966 -2.03131,1.54702 -2.4629,2.5895 l -3.49022,0.47077 13.19712,-23.2301 z m -1.51567,8.10545 1.62678,2.16989 c -0.12113,0.19492 -0.23199,0.38057 -0.42168,0.71107 -0.26026,0.45343 -0.59387,1.025 -1.00407,1.65416 -1.91053,2.91623 -5.38143,8.52368 -7.97264,15.86157 -1.97875,-0.0192 -11.09128,0.0817 -19.66599,2.31045 -0.89254,0.23075 -1.48059,0.32788 -2.28875,0.57051 l -1.43402,-1.9358 21.48086,-2.69131 z m 1.46658,6.04511 c 0.87296,0.22698 1.14935,0.29738 1.95544,0.5488 v -0.002 c 6.27113,1.9567 11.18473,5.6309 14.56242,11.25203 3.37255,5.61324 4.22643,11.97479 2.42,18.26762 -3.22206,11.22261 -12.02056,17.25081 -22.81669,17.69918 -1.91981,0.0796 -4.00075,-0.32368 -6.0017,-0.82217 -6.36263,-1.5867 -10.97704,-5.08115 -14.35727,-10.70736 -3.31695,-5.5208 -4.21059,-11.43572 -2.73833,-17.67748 6.92095,-1.73193 13.36009,-2.026 16.54473,-2.0624 l -3.04116,12.19512 c -0.0559,0.13609 -0.16093,0.30585 -0.29869,0.40463 -0.13968,0.10015 -0.30011,0.16334 -0.62115,0.078 -0.84749,-0.22469 -2.22674,-0.55707 -2.22674,-0.55707 l -0.32763,-0.078 -1.83606,4.23437 4.42764,1.10381 c 0.60472,0.15156 1.19801,0.30764 1.78903,0.46095 l -1.26194,5.07411 3.82251,0.95292 1.25005,-5.01158 c 0.56293,0.15038 1.11509,0.29481 1.6583,0.43149 l -1.24799,4.99453 3.82768,0.95498 1.27382,-5.1077 c 2.46713,0.43898 4.68595,0.58475 6.52932,0.0176 1.94201,-0.59759 3.45332,-1.99832 4.30826,-4.44107 0.68578,-1.95857 0.68391,-3.57352 0.11162,-4.88084 -0.48745,-1.11353 -1.42535,-1.93738 -2.55281,-2.62516 1.7593,-0.64342 3.18352,-1.95229 3.55275,-4.44934 h -0.002 c 0.2931,-1.95878 -0.32987,-3.54076 -1.51774,-4.73821 -1.1137,-1.12272 -2.71783,-1.91817 -4.52324,-2.57039 l 1.26349,-5.06998 -3.82612,-0.95549 -1.21853,4.88704 c -0.55235,-0.1344 -1.10841,-0.26498 -1.66605,-0.39274 l 1.22473,-4.90823 -1.9203,-0.47646 c 1.3118,-2.50453 2.55688,-4.59276 3.48041,-6.0234 z m -3.80648,15.8104 c 0.95608,0.21974 2.42622,0.47983 3.71088,1.08624 0.70865,0.33451 1.31436,0.75699 1.67587,1.26142 0.36151,0.50442 0.51241,1.07759 0.31264,1.87896 -0.18975,0.76024 -0.58406,1.18061 -1.1405,1.45107 -0.55644,0.27045 -1.29407,0.36323 -2.08049,0.33435 -1.42537,-0.0523 -2.85327,-0.48552 -3.7946,-0.73277 z m -2.28307,9.1643 c 1.13288,0.2646 2.95783,0.60042 4.54856,1.3224 0.86293,0.39165 1.61064,0.88184 2.06447,1.46244 0.45384,0.5806 0.64573,1.22781 0.42582,2.10944 -0.20812,0.83659 -0.67393,1.29822 -1.34772,1.59215 -0.67379,0.29393 -1.56723,0.38121 -2.51716,0.33176 -1.75197,-0.0912 -3.53036,-0.62184 -4.64881,-0.91209 z"></path>
    </g>
  </g>
</svg>
