<?xml version="1.0" encoding="UTF-8"?>
<svg id="Layer_2" data-name="Layer 2" xmlns="http://www.w3.org/2000/svg" viewBox="0 0 479.62 450.78">
  <defs>
    <style>
      .cls-1 {
        fill: #0b3b5e;
      }

      .cls-1, .cls-2, .cls-3, .cls-4, .cls-5, .cls-6, .cls-7, .cls-8 {
        stroke-width: 0px;
      }

      .cls-2 {
        fill: none;
      }

      .cls-3 {
        fill: #f18e2a;
      }

      .cls-4 {
        fill: #b3c5cb;
      }

      .cls-5 {
        fill: #04d1b8;
      }

      .cls-6 {
        fill: #003e51;
      }

      .cls-7 {
        fill: #fff;
      }

      .cls-8 {
        fill: #001489;
      }
    </style>
  </defs>
  <g id="Layer_1-2" data-name="Layer 1">
    <g>
      <rect class="cls-2" width="479.62" height="450.78"/>
      <g>
        <path class="cls-5" d="M52.56,363.23v-5.63h-5.72v11.36h20.99v-5.72h-15.27Z"/>
        <path class="cls-5" d="M41.09,368.95v-11.36h-5.72v5.61h-8.57c-4.76,0-8.62,3.86-8.62,8.6-.02,4.76,3.86,8.64,8.62,8.64h35.3v5.72H26.8c-4.76,0-8.62,3.88-8.62,8.64s3.86,8.62,8.62,8.62h8.57v5.61h5.74v-11.36s-14.31.02-14.44,0c-3.71-.31-3.62-5.61.14-5.76h41.03v-17.21H26.8c-3.77-.14-3.86-5.47-.14-5.78.14-.04,14.44,0,14.44,0Z"/>
        <path class="cls-5" d="M46.83,409.04h5.72v-5.63h15.27v-5.71h-20.99v11.34Z"/>
        <path class="cls-8" d="M97.58,389.22l-10.81-20.2h-7.35v28.64h5.81v-20.25l10.81,20.25h7.35v-28.64h-5.81v20.2Z"/>
        <path class="cls-8" d="M120.1,380.74l-7.12-11.72h-6.61l10.65,17.21v11.43h5.81v-11.43l10.69-17.21h-6.41l-7.01,11.72Z"/>
        <path class="cls-8" d="M156.79,372.67c-2.54-2.37-6.16-3.64-10.47-3.64h-9.87v28.64h10.07c8.97,0,14.33-5.36,14.33-14.33-.02-4.49-1.41-8.19-4.06-10.67ZM142.25,374.24h3.66c6.21,0,9.11,2.9,9.11,9.11s-2.9,9.11-9.11,9.11h-3.66v-18.22Z"/>
        <path class="cls-8" d="M171.38,369.03h-5.81v28.64h5.81v-28.64Z"/>
        <path class="cls-8" d="M199.07,382.56h-9.07v5.22h7.7l-.02.05c-.87,3.06-3.73,5.04-7.3,5.04h-.4c-5,0-8.1-3.64-8.1-9.51s3.1-9.51,8.1-9.51h.4c4.87,0,6.03,3.19,6.28,5.09l.02.16h5.81l-.02-.2c-.43-6.23-5.25-10.27-12.3-10.27-8.31,0-14.11,6.05-14.11,14.73s5.63,14.73,13.71,14.73c3.24,0,5.96-1,7.9-2.88v2.48h5v-11.48c.02-2.35-1.27-3.64-3.6-3.64Z"/>
      </g>
      <path class="cls-4" d="M239.8,433.5c-.42,0-.77-.34-.77-.77v-88.39c0-.42.34-.77.77-.77s.77.34.77.77v88.39c0,.42-.34.77-.77.77Z"/>
      <g>
        <g>
          <path class="cls-6" d="M128.28,277.2h3.21v8.49h9.52v-8.49h3.21v20.03h-3.21v-8.77h-9.52v8.77h-3.21v-20.03Z"/>
          <path class="cls-6" d="M147.79,289.32c0-5.7,3.96-8.22,8-8.22s8.02,2.52,8.02,8.22-3.96,8.27-8,8.27-8.02-2.52-8.02-8.27ZM160.71,289.32c0-3.46-1.99-5.59-4.92-5.59s-4.9,2.1-4.9,5.59,1.96,5.62,4.92,5.62,4.9-2.13,4.9-5.62Z"/>
          <path class="cls-6" d="M167.1,276.26h3.13v20.97h-3.13v-20.97Z"/>
          <path class="cls-6" d="M173.48,289.32c0-5.45,3.32-8.22,7.25-8.22,2.49,0,4.73,1.22,5.62,3.4v-8.24h3.1v20.94h-3.1v-2.99c-.89,2.13-3.13,3.38-5.59,3.38-3.93,0-7.28-2.79-7.28-8.27ZM186.43,289.32c0-3.46-1.99-5.59-4.95-5.59s-4.9,2.1-4.9,5.59,1.99,5.62,4.95,5.62,4.9-2.13,4.9-5.62Z"/>
          <path class="cls-6" d="M193.18,277.45c0-1.05.77-1.66,1.83-1.66,1,0,1.85.61,1.85,1.66s-.86,1.66-1.85,1.66c-1.05,0-1.83-.64-1.83-1.66ZM193.46,281.41h3.07v15.83h-3.07v-15.83Z"/>
          <path class="cls-6" d="M200.49,281.41h3.1v2.88c.72-1.96,2.52-3.15,5.17-3.15,4.37,0,6.39,2.52,6.39,7.53v8.58h-3.1v-8.33c0-3.46-1.33-5.09-4.26-5.09s-4.21,1.96-4.21,5.45v7.97h-3.1v-15.83Z"/>
          <path class="cls-6" d="M218.48,298.53l2.93-.72c.78,1.63,2.49,2.68,4.65,2.68,3.13,0,4.9-1.55,4.9-5.51v-1.38c-.89,2.35-3.13,3.26-5.59,3.26-3.96,0-7.28-2.63-7.28-7.89s3.32-7.86,7.25-7.86c2.49,0,4.73.91,5.62,3.29v-3.02h3.1v13.09c0,5.92-2.79,8.47-8.02,8.47-3.71,0-6.47-1.6-7.55-4.43ZM231.01,288.99c0-3.4-1.96-5.48-4.92-5.48s-4.9,2.08-4.9,5.48,1.96,5.51,4.92,5.51,4.9-2.08,4.9-5.51Z"/>
          <path class="cls-6" d="M236.93,293.41l2.82-.77c.77,1.44,2.41,2.21,4.62,2.21,2.46,0,3.79-.77,3.79-2.21,0-3.62-10.54-.33-10.54-6.97,0-2.71,2.88-4.54,6.53-4.54,2.88,0,5.78,1.44,6.72,3.62l-2.77.75c-.66-1.16-2.21-1.83-3.9-1.83-2.21,0-3.54.75-3.54,2.05,0,3.6,10.62.28,10.62,6.83,0,3.04-2.68,4.95-6.92,4.95-3.57,0-6.47-1.6-7.44-4.09Z"/>
          <path class="cls-6" d="M261.81,287.16c0-6.11,3.82-10.26,9.43-10.26,4.23,0,7.06,1.63,8.41,5.12l-3.13.66c-.97-2.05-2.66-2.99-5.23-2.99-3.76,0-6.28,2.96-6.28,7.5s2.43,7.5,6.28,7.5c3.51,0,5.78-1.96,5.95-5.84h-5.95v-2.74h9.24c.03.53.03,1,.03,1.47,0,6.11-3.62,9.88-9.41,9.88s-9.35-4.04-9.35-10.29Z"/>
          <path class="cls-6" d="M284.04,281.41h3.1v2.66c.61-1.69,2.27-3.24,5.56-2.77l-.33,2.99c-3.54-.66-5.23,1.25-5.23,5.12v7.83h-3.1v-15.83Z"/>
          <path class="cls-6" d="M293.97,289.32c0-5.7,3.96-8.22,8-8.22s8.02,2.52,8.02,8.22-3.96,8.27-8,8.27-8.02-2.52-8.02-8.27ZM306.89,289.32c0-3.46-1.99-5.59-4.92-5.59s-4.9,2.1-4.9,5.59,1.96,5.62,4.92,5.62,4.9-2.13,4.9-5.62Z"/>
          <path class="cls-6" d="M312.99,290.01v-8.6h3.1v8.36c0,3.43,1.25,5.06,4.23,5.06s4.21-1.96,4.21-5.45v-7.97h3.1v15.83h-3.1v-2.88c-.69,1.96-2.52,3.18-5.15,3.18-4.37,0-6.39-2.55-6.39-7.53Z"/>
          <path class="cls-6" d="M331.64,281.41h3.1v2.99c.83-2.02,2.96-3.32,5.62-3.32,3.71,0,7.25,2.49,7.25,8.22s-3.57,8.19-7.28,8.19c-2.66,0-4.76-1.33-5.59-3.35v8.22h-3.1v-20.94ZM344.5,289.29c0-3.49-1.96-5.62-4.9-5.62s-4.95,2.1-4.95,5.62,1.99,5.59,4.9,5.59,4.95-2.13,4.95-5.59Z"/>
        </g>
        <rect class="cls-6" x="127.91" y="36.23" width="219.69" height="219.69"/>
        <g>
          <path class="cls-7" d="M189.15,201.25c.36-.47,1.04-.54,1.51-.18l.04.04c2.58,2.12,6.96,4.56,11.49,4.49,3.05,0,5.82-.9,7.72-2.3,1.9-1.4,3.02-3.27,3.02-5.21s-.93-3.52-2.84-4.81c-1.9-1.26-4.7-2.19-8.11-2.84h-.11c-3.27-.61-6.1-1.51-8.26-2.94-2.15-1.44-3.59-3.52-3.59-6.1s1.44-4.95,3.66-6.53c2.23-1.58,5.17-2.55,8.44-2.55,4.59,0,8.04,2.26,10.8,4.06.5.36.65,1.04.29,1.54h0c-.32.5-.97.65-1.47.32l-.04-.04c-2.76-1.79-5.74-3.7-9.62-3.7-2.84,0-5.38.86-7.14,2.12-1.76,1.26-2.76,3.02-2.76,4.81s.86,3.05,2.58,4.24,4.34,2.05,7.5,2.66h.11c3.52.65,6.6,1.65,8.9,3.19,2.3,1.54,3.88,3.81,3.88,6.61s-1.58,5.31-3.95,7c-2.66,1.83-5.78,2.8-9.01,2.76-5.35-.07-9.98-2.76-12.89-5.1-.43-.39-.5-1.04-.14-1.54Z"/>
          <path class="cls-7" d="M189.15,201.25c.36-.47,1.04-.54,1.51-.18l.04.04c2.58,2.12,6.96,4.56,11.49,4.49,3.05,0,5.82-.9,7.72-2.3,1.9-1.4,3.02-3.27,3.02-5.21s-.93-3.52-2.84-4.81c-1.9-1.26-4.7-2.19-8.11-2.84h-.11c-3.27-.61-6.1-1.51-8.26-2.94-2.15-1.44-3.59-3.52-3.59-6.1s1.44-4.95,3.66-6.53c2.23-1.58,5.17-2.55,8.44-2.55,4.59,0,8.04,2.26,10.8,4.06.5.36.65,1.04.29,1.54h0c-.32.5-.97.65-1.47.32l-.04-.04c-2.76-1.79-5.74-3.7-9.62-3.7-2.84,0-5.38.86-7.14,2.12-1.76,1.26-2.76,3.02-2.76,4.81s.86,3.05,2.58,4.24,4.34,2.05,7.5,2.66h.11c3.52.65,6.6,1.65,8.9,3.19,2.3,1.54,3.88,3.81,3.88,6.61s-1.58,5.31-3.95,7c-2.66,1.83-5.78,2.8-9.01,2.76-5.35-.07-9.98-2.76-12.89-5.1-.43-.39-.5-1.04-.14-1.54Z"/>
          <path class="cls-7" d="M229.32,175.26h-10.55c-.68-.04-1.18-.61-1.15-1.29.04-.61.54-1.11,1.15-1.15h23.51c.68.04,1.18.61,1.15,1.29-.04.61-.54,1.11-1.15,1.15h-10.55v31.37c.04.65-.47,1.22-1.15,1.26-.65.04-1.22-.47-1.26-1.15v-31.48Z"/>
          <path class="cls-7" d="M263.14,172.32c9.33,0,16.69,7.93,16.76,17.77-.04,9.8-7.39,17.77-16.76,17.77s-16.87-7.93-16.91-17.77c.04-9.84,7.43-17.77,16.91-17.77ZM263.14,205.38c7.72,0,14.22-6.75,14.25-15.29-.04-8.65-6.53-15.26-14.25-15.26s-14.47,6.6-14.47,15.26c0,8.54,6.5,15.29,14.47,15.29Z"/>
          <path class="cls-7" d="M289.38,177.95v28.65c.04.65-.47,1.22-1.15,1.26-.65.04-1.22-.47-1.26-1.15v-32.24c-.14-.5.04-1.04.43-1.36.57-.36,1.29-.25,1.69.29l21.21,29.4v-28.5c.04-.68.61-1.18,1.29-1.15.61.04,1.11.54,1.15,1.15v32.27c0,.68-.57,1.22-1.26,1.22-.36,0-.72-.14-.93-.47-.04-.04-.14-.11-.22-.18l-20.96-29.18Z"/>
          <path class="cls-7" d="M320.18,174.01c0-.65.54-1.18,1.18-1.22h18.02c.68.04,1.18.61,1.15,1.29-.04.61-.54,1.11-1.15,1.15h-16.76v13.86h14.65c.68.04,1.18.61,1.15,1.29-.04.61-.54,1.11-1.15,1.15h-14.65v13.82h16.76c.68.04,1.18.61,1.15,1.29-.04.61-.54,1.11-1.15,1.15h-18.09c-.61-.04-1.11-.57-1.11-1.22v-32.56Z"/>
          <path class="cls-7" d="M243.39,215.11c0-.65.54-1.18,1.18-1.22.68,0,1.22.54,1.26,1.22v32.59c0,.68-.57,1.22-1.26,1.18-.65,0-1.18-.54-1.18-1.18v-32.59Z"/>
          <path class="cls-7" d="M255.17,248.92h-.18c-.61-.04-1.11-.57-1.11-1.18v-32.59c0-.65.54-1.18,1.22-1.22h6.53c9.66,0,17.52,7.83,17.52,17.52s-7.83,17.52-17.52,17.52h-6.46v-.04ZM261.63,246.44c8.33-.14,14.93-6.96,14.83-15.29-.11-8.15-6.68-14.68-14.83-14.83h-5.31v30.12h5.31Z"/>
          <path class="cls-7" d="M301.83,233.16c-.65.04-1.22-.47-1.26-1.15v-.07c0-.68.54-1.26,1.22-1.26h10.98c.65.07,1.11.61,1.11,1.26v12.2c-.04.36-.18.68-.47.9-3.23,2.51-7.22,3.88-11.31,3.84-10.05-.04-18.2-7.9-18.2-17.8s8.15-17.7,18.2-17.7c4.13,0,8.11,1.4,11.34,3.95.5.43.57,1.18.14,1.69-.43.5-1.18.61-1.76.22-2.76-2.23-6.21-3.41-9.76-3.41-8.76,0-15.76,6.86-15.76,15.26s7,15.36,15.76,15.36c3.34,0,6.57-1.04,9.26-3.02v-10.3l-9.51.04Z"/>
          <path class="cls-7" d="M320.18,215.11c0-.65.54-1.18,1.18-1.22h18.02c.68.04,1.18.61,1.15,1.29-.04.61-.54,1.11-1.15,1.15h-16.76v13.86h14.65c.68.04,1.18.61,1.15,1.29-.04.61-.54,1.11-1.15,1.15h-14.65v13.82h16.76c.65,0,1.18.54,1.22,1.18v.07c0,.65-.5,1.18-1.18,1.18h-18.13c-.61-.04-1.11-.57-1.11-1.18v-32.59h0Z"/>
          <path class="cls-7" d="M235.17,245.91l-.11-.04c-.22-.22-.36-.5-.47-.83-.25-.75-.43-2.01-.43-4.06,0-3.95-2.41-6.5-4.7-7.79-.18-.07-.32-.14-.5-.25,4.99-2.33,7.14-8.29,4.81-13.32-1.65-3.48-5.13-5.74-9.01-5.74h-10.02c-.61.07-1.08.57-1.11,1.22v32.59c0,.68.54,1.22,1.22,1.22s1.22-.54,1.22-1.22v-13.86h8.51s.11.04.25.11c1.47.32,2.84.9,4.06,1.76,1.54,1.15,2.84,2.76,2.84,5.31,0,2.94.36,4.59.93,5.74.29.54.72,1.01,1.26,1.33.14.11.29.14.43.18h.04c.07,0,.14.04.25.04.68,0,1.26-.54,1.26-1.26.04-.5-.25-.97-.72-1.15h0ZM224.94,231.44h-8.87v-15.11h8.65c4.16-.07,7.61,3.27,7.65,7.47s-3.27,7.61-7.43,7.65h0Z"/>
        </g>
      </g>
      <g>
        <path class="cls-1" d="M341.2,365.08l-11.91,36.4h-9.05l-8.01-24.65-8.27,24.65h-9l-11.96-36.4h8.74l8.22,25.58,8.58-25.58h7.8l8.32,25.79,8.48-25.79h8.06Z"/>
        <path class="cls-1" d="M341.18,387.49c0-8.42,6.5-14.4,15.39-14.4s15.34,5.98,15.34,14.4-6.45,14.4-15.34,14.4-15.39-5.98-15.39-14.4ZM363.69,387.49c0-4.84-3.07-7.75-7.12-7.75s-7.18,2.91-7.18,7.75,3.12,7.75,7.18,7.75,7.12-2.91,7.12-7.75Z"/>
        <path class="cls-1" d="M421.22,375.19h7.18v6.24h-6.97v20.05h-8.11v-20.05h-4.32v-6.24h4.32v-1.25c0-6.29,3.85-10.4,10.82-10.4,2.29,0,4.68.47,6.19,1.51l-2.13,5.88c-.88-.62-2.03-.99-3.28-.99-2.39,0-3.69,1.3-3.69,4.06v1.2Z"/>
        <g>
          <polygon class="cls-1" points="387.87 397.13 400.08 365.1 387.8 365.1 374.76 401.51 388.57 401.51 377.69 436.61 399.14 397.6 387.87 397.13"/>
          <polygon class="cls-3" points="406.9 365.1 398.16 365.1 385.21 398.26 396.94 398.26 377.69 436.61 406.34 394.94 393.69 394.94 406.9 365.1"/>
        </g>
      </g>
    </g>
  </g>
</svg>